# xmcd
#
# Track frame offsets: 
#        150
#        22188
#        43752
#        64448
#        89596
#        99924
#        116904
#        134305
#        149939
#        167994
#        192133
#
# Disc length: 2790 seconds
#
# Revision: 3
# Processed by: cddbd v1.5.2PL0 Copyright (c) Steve Scherf et al.
# Submitted via: ExactAudioCopy v1.0b4
#
DISCID=ae0ae40b
DTITLE=Ray Bonneville - On the Main
DYEAR=1993
DGENRE=Blues
TTITLE0=My own two feet
TTITLE1=Dance with me
TTITLE2=The good times
TTITLE3=On the main
TTITLE4=Blue train
TTITLE5=Take it easy Katie
TTITLE6=If I can
TTITLE7=Bottle of wine
TTITLE8=Tell me
TTITLE9=I gotta go
TTITLE10=Lookin' for a groove
EXTD=
EXTT0=
EXTT1=
EXTT2=
EXTT3=
EXTT4=
EXTT5=
EXTT6=
EXTT7=
EXTT8=
EXTT9=
EXTT10=
PLAYORDER=
